# xmcd
#
# Track frame offsets:
# 150
# 14618
# 36154
# 49018
# 67556
#
# Disc length: 1227 seconds
#
#
# Revision: 0
# Processed by: cddbd v1.4PL0 Copyright (c) Steve Scherf et al.
# Submitted via: FreeRIP 2.51 
#
DISCID=3504c905
DTITLE=Chris Janzen - Think With Your Heart
DYEAR=1900
DGENRE=Worship
TTITLE0=The Longing
TTITLE1=Courage
TTITLE2=Wake Up
TTITLE3=How Is It
TTITLE4=Protection
EXTD=
EXTT0=
EXTT1=
EXTT2=
EXTT3=
EXTT4=
PLAYORDER=
